<?xml version="1.0" encoding="UTF-8" standalone="no"?>
<!-- Created with Inkscape (http://www.inkscape.org/) -->

<svg
   xmlns:dc="http://purl.org/dc/elements/1.1/"
   xmlns:cc="http://creativecommons.org/ns#"
   xmlns:rdf="http://www.w3.org/1999/02/22-rdf-syntax-ns#"
   xmlns:svg="http://www.w3.org/2000/svg"
   xmlns="http://www.w3.org/2000/svg"
   xmlns:xlink="http://www.w3.org/1999/xlink"
   xmlns:sodipodi="http://sodipodi.sourceforge.net/DTD/sodipodi-0.dtd"
   xmlns:inkscape="http://www.inkscape.org/namespaces/inkscape"
   id="svg2"
   version="1.1"
   inkscape:version="0.91 r13725"
   width="118.00026mm"
   height="44.578766mm"
   xml:space="preserve"
   sodipodi:docname="logo_crop.svg"><metadata
     id="metadata8"><rdf:RDF><cc:Work
         rdf:about=""><dc:format>image/svg+xml</dc:format><dc:type
           rdf:resource="http://purl.org/dc/dcmitype/StillImage" /><dc:title></dc:title></cc:Work></rdf:RDF></metadata><defs
     id="defs6"><clipPath
       clipPathUnits="userSpaceOnUse"
       id="clipPath16"><path
         d="m 258.322,329.863 c -13.931,-1.861 -21.545,-5.866 -20.212,-9.89 l 0,0 0.953,-2.571 c 0.407,-0.888 0.926,-2.076 1.376,-2.962 l 0,0 c -1.958,3.927 5.24,7.91 18.827,9.726 l 0,0 c 16.957,2.265 37.441,0.296 45.756,-4.395 l 0,0 c 3,-1.693 4.006,-3.51 3.269,-5.246 l 0,0 c 0.633,1.334 1.397,3.035 1.921,4.358 l 0,0 0.337,0.969 c 0.594,1.773 -0.516,3.615 -3.568,5.337 l 0,0 c -6.352,3.584 -19.383,5.673 -32.903,5.673 l 0,0 c -5.302,0 -10.678,-0.321 -15.756,-0.999 m 49.843,-15.602 c 0.047,0.088 0.089,0.176 0.126,0.264 l 0,0 c -0.043,-0.09 -0.084,-0.178 -0.126,-0.264 m -67.693,0.114 c -0.011,0.022 -0.022,0.044 -0.033,0.065 l 0,0 c 0.011,-0.021 0.022,-0.043 0.033,-0.065"
         id="path18"
         inkscape:connector-curvature="0" /></clipPath><linearGradient
       x1="0"
       y1="0"
       x2="1"
       y2="0"
       gradientUnits="userSpaceOnUse"
       gradientTransform="matrix(-82.611542,10.422943,10.422943,82.611557,314.74316,315.86963)"
       spreadMethod="pad"
       id="linearGradient24"><stop
         style="stop-opacity:1;stop-color:#3f40ff"
         offset="0"
         id="stop26" /><stop
         id="stop3660"
         offset="1"
         style="stop-color:#3fc1ff;stop-opacity:1;" /></linearGradient><clipPath
       clipPathUnits="userSpaceOnUse"
       id="clipPath40"><path
         d="m 0,595.276 841.89,0 L 841.89,0 0,0 0,595.276 Z"
         id="path42"
         inkscape:connector-curvature="0" /></clipPath><clipPath
       clipPathUnits="userSpaceOnUse"
       id="clipPath48"><path
         d="m 245.781,304.131 57.319,0 0,-9.096 -57.319,0 0,9.096 z"
         id="path50"
         inkscape:connector-curvature="0" /></clipPath><clipPath
       clipPathUnits="userSpaceOnUse"
       id="clipPath52"><path
         d="m 300.399,301.336 -1.965,-1.649 c -2.157,-1.67 -6.57,-3.113 -12.768,-3.947 -12.635,-1.7 -27.9,-0.221 -34.095,3.297 -0.445,0.254 -0.829,0.508 -1.158,0.767 l -0.57,0.46 c -1.259,1.114 -2.885,2.665 -4.062,3.867 0.496,-0.541 1.201,-1.081 2.123,-1.603 7.19,-4.087 24.909,-5.801 39.571,-3.828 8.082,1.085 13.55,3.068 15.625,5.31 -0.801,-0.814 -1.845,-1.922 -2.701,-2.674"
         id="path54"
         inkscape:connector-curvature="0" /></clipPath><radialGradient
       fx="0"
       fy="0"
       cx="0"
       cy="0"
       r="1"
       gradientUnits="userSpaceOnUse"
       gradientTransform="matrix(61.40535,0,0,-61.40535,305.53467,298.22363)"
       spreadMethod="pad"
       id="radialGradient56"><stop
         style="stop-opacity:1;stop-color:#ffffff"
         offset="0"
         id="stop58" /><stop
         style="stop-opacity:1;stop-color:#000000"
         offset="1"
         id="stop60" /><stop
         style="stop-opacity:1;stop-color:#000000"
         offset="1"
         id="stop62" /><stop
         style="stop-opacity:1;stop-color:#000000"
         offset="1"
         id="stop64" /></radialGradient><clipPath
       clipPathUnits="userSpaceOnUse"
       id="clipPath84"><path
         d="m 245.457,313.141 57.762,0 0,-14.284 -57.762,0 0,14.284 z"
         id="path86"
         inkscape:connector-curvature="0" /></clipPath><clipPath
       clipPathUnits="userSpaceOnUse"
       id="clipPath88"><path
         d="m 296.668,304.232 c 1.288,1.371 2.49,2.833 3.596,4.372 -7.022,3.989 -24.322,5.664 -38.64,3.738 -12.482,-1.679 -18.579,-5.539 -15.283,-9.146 1.149,-1.173 2.736,-2.685 3.967,-3.775 l 0.555,-0.449 c -4.151,3.269 1.061,6.939 12.513,8.48 12.337,1.658 27.243,0.216 33.292,-3.22"
         id="path90"
         inkscape:connector-curvature="0" /></clipPath><radialGradient
       fx="0"
       fy="0"
       cx="0"
       cy="0"
       r="1"
       gradientUnits="userSpaceOnUse"
       gradientTransform="matrix(111.84471,0,0,-111.8447,343.31055,307.33154)"
       spreadMethod="pad"
       id="radialGradient92"><stop
         style="stop-opacity:1;stop-color:#ffffff"
         offset="0"
         id="stop94" /><stop
         style="stop-opacity:1;stop-color:#000000"
         offset="1"
         id="stop96" /><stop
         style="stop-opacity:1;stop-color:#000000"
         offset="1"
         id="stop98" /><stop
         style="stop-opacity:1;stop-color:#000000"
         offset="1"
         id="stop100" /></radialGradient><clipPath
       clipPathUnits="userSpaceOnUse"
       id="clipPath102"><path
         d="m 296.668,304.232 c 3.082,-1.751 3.272,-3.682 1.086,-5.375 l 1.919,1.612 c 0.8,0.772 1.874,1.8 2.636,2.61 1.651,1.782 1.106,3.735 -2.045,5.525 -1.106,-1.539 -2.308,-3.001 -3.596,-4.372"
         id="path104"
         inkscape:connector-curvature="0" /></clipPath><radialGradient
       fx="0"
       fy="0"
       cx="0"
       cy="0"
       r="1"
       gradientUnits="userSpaceOnUse"
       gradientTransform="matrix(111.84122,0,0,-111.84122,343.30908,307.33105)"
       spreadMethod="pad"
       id="radialGradient106"><stop
         style="stop-opacity:1;stop-color:#ffffff"
         offset="0"
         id="stop108" /><stop
         style="stop-opacity:1;stop-color:#000000"
         offset="1"
         id="stop110" /><stop
         style="stop-opacity:1;stop-color:#000000"
         offset="1"
         id="stop112" /><stop
         style="stop-opacity:1;stop-color:#000000"
         offset="1"
         id="stop114" /></radialGradient><clipPath
       clipPathUnits="userSpaceOnUse"
       id="clipPath144"><path
         d="m 238.422,319.442 -0.08,0.243 c 0.024,-0.081 0.05,-0.162 0.08,-0.243 m 71.859,0.026 c 0.009,0.026 0.017,0.053 0.025,0.08 l 0,0 -0.025,-0.08 z m -20.05,-9.038 c -17.913,-2.724 -39.554,-0.357 -48.34,5.286 l 0,0 c -1.877,1.207 -3.016,2.465 -3.469,3.726 l 0,0 0.866,-2.665 c 0.386,-1.044 0.976,-2.398 1.402,-3.42 l 0,0 c 0.495,-1.077 1.524,-2.146 3.128,-3.177 l 0,0 c 8.26,-5.307 28.611,-7.533 45.454,-4.972 l 0,0 c 10.459,1.589 17.107,4.654 18.665,8.016 l 0,0 c 0.664,1.542 1.463,3.64 2.034,5.228 l 0,0 0.31,1.016 c -1.195,-3.776 -8.399,-7.265 -20.05,-9.038"
         id="path146"
         inkscape:connector-curvature="0" /></clipPath><linearGradient
       x1="0"
       y1="0"
       x2="1.622335"
       y2="-0.29981369"
       gradientUnits="userSpaceOnUse"
       gradientTransform="matrix(-73.056045,-11.217255,-11.217255,73.056061,317.31592,320.6626)"
       spreadMethod="pad"
       id="linearGradient152"><stop
         style="stop-opacity:1;stop-color:#3f40ff"
         offset="0"
         id="stop154" /><stop
         style="stop-opacity:1;stop-color:#1fe345"
         offset="1"
         id="stop156" /><stop
         style="stop-opacity:1;stop-color:#1fe345"
         offset="1"
         id="stop158" /><stop
         style="stop-opacity:1;stop-color:#1fe345"
         offset="1"
         id="stop160" /></linearGradient><clipPath
       clipPathUnits="userSpaceOnUse"
       id="clipPath168"><path
         d="m 0,595.276 841.89,0 L 841.89,0 0,0 0,595.276 Z"
         id="path170"
         inkscape:connector-curvature="0" /></clipPath><clipPath
       clipPathUnits="userSpaceOnUse"
       id="clipPath176"><path
         d="m 236.564,346.477 75.645,0 0,-15.903 -75.645,0 0,15.903 z"
         id="path178"
         inkscape:connector-curvature="0" /></clipPath><clipPath
       clipPathUnits="userSpaceOnUse"
       id="clipPath180"><path
         d="m 308.34,335.053 c -0.086,1.93 -0.315,3.801 -0.675,5.604 -9.012,5.118 -31.21,7.265 -49.583,4.795 -12.394,-1.667 -19.881,-5.009 -20.677,-8.579 l -0.347,-1.77 c -0.172,-1.318 -0.399,-3.075 -0.494,-4.4 0.207,3.824 7.956,7.467 21.17,9.244 18.752,2.524 41.411,0.332 50.606,-4.894"
         id="path182"
         inkscape:connector-curvature="0" /></clipPath><radialGradient
       fx="0"
       fy="0"
       cx="0"
       cy="0"
       r="1"
       gradientUnits="userSpaceOnUse"
       gradientTransform="matrix(111.78856,0,0,-111.78856,323.78027,342.28906)"
       spreadMethod="pad"
       id="radialGradient184"><stop
         style="stop-opacity:1;stop-color:#ffffff"
         offset="0"
         id="stop186" /><stop
         style="stop-opacity:1;stop-color:#000000"
         offset="1"
         id="stop188" /><stop
         style="stop-opacity:1;stop-color:#000000"
         offset="1"
         id="stop190" /><stop
         style="stop-opacity:1;stop-color:#000000"
         offset="1"
         id="stop192" /></radialGradient><clipPath
       clipPathUnits="userSpaceOnUse"
       id="clipPath194"><path
         d="m 308.34,335.053 c 2.545,-1.445 3.793,-2.973 3.869,-4.479 -0.119,1.323 -0.281,3.09 -0.479,4.405 l -0.34,1.768 c -0.289,1.319 -1.501,2.645 -3.725,3.91 0.36,-1.803 0.589,-3.674 0.675,-5.604"
         id="path196"
         inkscape:connector-curvature="0" /></clipPath><radialGradient
       fx="0"
       fy="0"
       cx="0"
       cy="0"
       r="1"
       gradientUnits="userSpaceOnUse"
       gradientTransform="matrix(111.79272,0,0,-111.79272,323.77881,342.29004)"
       spreadMethod="pad"
       id="radialGradient198"><stop
         style="stop-opacity:1;stop-color:#ffffff"
         offset="0"
         id="stop200" /><stop
         style="stop-opacity:1;stop-color:#000000"
         offset="1"
         id="stop202" /><stop
         style="stop-opacity:1;stop-color:#000000"
         offset="1"
         id="stop204" /><stop
         style="stop-opacity:1;stop-color:#000000"
         offset="1"
         id="stop206" /></radialGradient><clipPath
       clipPathUnits="userSpaceOnUse"
       id="clipPath236"><path
         d="m 236.847,338.023 75.365,0 0,-16.892 -75.365,0 0,16.892 z"
         id="path238"
         inkscape:connector-curvature="0" /></clipPath><clipPath
       clipPathUnits="userSpaceOnUse"
       id="clipPath240"><path
         d="m 311.732,336.129 c 0.167,-1.319 0.387,-3.078 0.477,-4.404 0.195,-3.934 -7.581,-7.723 -21.091,-9.547 -18.681,-2.522 -41.253,-0.331 -50.414,4.893 -2.705,1.544 -3.939,3.178 -3.852,4.782 0.123,1.321 0.291,3.087 0.493,4.4 l 0.346,1.77 c -0.382,-1.723 0.787,-3.499 3.707,-5.163 8.977,-5.119 31.092,-7.267 49.395,-4.796 13.785,1.862 21.477,5.811 20.6,9.833 l 0.339,-1.768"
         id="path242"
         inkscape:connector-curvature="0" /></clipPath><radialGradient
       fx="0"
       fy="0"
       cx="0"
       cy="0"
       r="1"
       gradientUnits="userSpaceOnUse"
       gradientTransform="matrix(79.985992,0,0,-80.291092,326.62061,333.74561)"
       spreadMethod="pad"
       id="radialGradient244"><stop
         style="stop-opacity:1;stop-color:#ffffff"
         offset="0"
         id="stop246" /><stop
         style="stop-opacity:1;stop-color:#000000"
         offset="1"
         id="stop248" /><stop
         style="stop-opacity:1;stop-color:#000000"
         offset="1"
         id="stop250" /><stop
         style="stop-opacity:1;stop-color:#000000"
         offset="1"
         id="stop252" /></radialGradient><clipPath
       clipPathUnits="userSpaceOnUse"
       id="clipPath272"><path
         d="m 263.47,362.522 c -6.167,-0.839 -10.526,-2.302 -12.59,-3.99 l 0,0 -1.558,-1.363 c -0.818,-0.815 -1.892,-1.893 -2.692,-2.768 l 0,0 c 2.047,2.183 7.341,4.106 15.142,5.167 l 0,0 c 14.25,1.935 31.466,0.255 38.454,-3.757 l 0,0 c -1.054,1.257 -2.205,2.41 -3.441,3.454 l 0,0 c -4.349,2.497 -13.272,3.952 -22.529,3.952 l 0,0 c -3.629,0 -7.309,-0.223 -10.786,-0.695 m -16.95,-8.242 c 0.036,0.039 0.073,0.08 0.11,0.121 l 0,0 c -0.038,-0.041 -0.075,-0.081 -0.11,-0.121"
         id="path274"
         inkscape:connector-curvature="0" /></clipPath><radialGradient
       fx="0"
       fy="0"
       cx="0"
       cy="0"
       r="1"
       gradientUnits="userSpaceOnUse"
       gradientTransform="matrix(33.540726,0,0,-33.886368,255.48975,360.7334)"
       spreadMethod="pad"
       id="radialGradient280"><stop
         style="stop-opacity:1;stop-color:#ffffff"
         offset="0"
         id="stop282" /><stop
         style="stop-opacity:1;stop-color:#000000"
         offset="1"
         id="stop284" /><stop
         style="stop-opacity:1;stop-color:#000000"
         offset="1"
         id="stop286" /><stop
         style="stop-opacity:1;stop-color:#000000"
         offset="1"
         id="stop288" /></radialGradient><clipPath
       clipPathUnits="userSpaceOnUse"
       id="clipPath296"><path
         d="m 300.226,355.811 c 0.799,-0.458 1.43,-0.928 1.9,-1.402 l 0,0 c -0.791,0.848 -1.776,1.894 -2.568,2.659 l 0,0 -1.578,1.388 c -0.333,0.274 -0.732,0.544 -1.195,0.809 l 0,0 c 1.236,-1.044 2.387,-2.197 3.441,-3.454 m 2.122,-1.64 c -0.07,0.079 -0.144,0.159 -0.222,0.238 l 0,0 c 0.076,-0.082 0.15,-0.161 0.222,-0.238"
         id="path298"
         inkscape:connector-curvature="0" /></clipPath><radialGradient
       fx="0"
       fy="0"
       cx="0"
       cy="0"
       r="1"
       gradientUnits="userSpaceOnUse"
       gradientTransform="matrix(33.542862,0,0,-33.888519,255.48633,360.73096)"
       spreadMethod="pad"
       id="radialGradient304"><stop
         style="stop-opacity:1;stop-color:#ffffff"
         offset="0"
         id="stop306" /><stop
         style="stop-opacity:1;stop-color:#000000"
         offset="1"
         id="stop308" /><stop
         style="stop-opacity:1;stop-color:#000000"
         offset="1"
         id="stop310" /><stop
         style="stop-opacity:1;stop-color:#000000"
         offset="1"
         id="stop312" /></radialGradient><clipPath
       clipPathUnits="userSpaceOnUse"
       id="clipPath320"><path
         d="m 0,595.276 841.89,0 L 841.89,0 0,0 0,595.276 Z"
         id="path322"
         inkscape:connector-curvature="0" /></clipPath><clipPath
       clipPathUnits="userSpaceOnUse"
       id="clipPath328"><path
         d="m 245.762,358.51 57.519,0 0,-13.94 -57.519,0 0,13.94 z"
         id="path330"
         inkscape:connector-curvature="0" /></clipPath><clipPath
       clipPathUnits="userSpaceOnUse"
       id="clipPath332"><path
         d="m 299.669,357.079 c 0.851,-0.832 1.986,-1.949 2.792,-2.825 3.146,-3.514 -2.926,-7.265 -15.278,-8.9 -14.258,-1.888 -31.486,-0.25 -38.478,3.663 -3.093,1.731 -3.664,3.615 -2.106,5.342 0.825,0.861 1.931,2.005 2.803,2.819 l 1.561,1.332 c -2.068,-1.65 -1.831,-3.517 1.199,-5.211 6.058,-3.389 20.983,-4.811 33.335,-3.173 11.406,1.511 16.631,5.099 12.594,8.308 l 1.578,-1.355"
         id="path334"
         inkscape:connector-curvature="0" /></clipPath><radialGradient
       fx="0"
       fy="0"
       cx="0"
       cy="0"
       r="1"
       gradientUnits="userSpaceOnUse"
       gradientTransform="matrix(51.70404,0,0,-50.914185,302.37793,353.17236)"
       spreadMethod="pad"
       id="radialGradient336"><stop
         style="stop-opacity:1;stop-color:#ffffff"
         offset="0"
         id="stop338" /><stop
         style="stop-opacity:1;stop-color:#000000"
         offset="1"
         id="stop340" /><stop
         style="stop-opacity:1;stop-color:#000000"
         offset="1"
         id="stop342" /><stop
         style="stop-opacity:1;stop-color:#000000"
         offset="1"
         id="stop344" /></radialGradient><clipPath
       clipPathUnits="userSpaceOnUse"
       id="clipPath364"><path
         d="m 245.944,362.687 56.98,0 0,-9.139 -56.98,0 0,9.139 z"
         id="path366"
         inkscape:connector-curvature="0" /></clipPath><clipPath
       clipPathUnits="userSpaceOnUse"
       id="clipPath368"><path
         d="m 300.758,355.207 c -1.076,1.267 -2.251,2.434 -3.511,3.487 -6.18,3.513 -21.402,4.984 -34.003,3.289 -6.293,-0.846 -10.743,-2.323 -12.848,-4.028 l -1.592,-1.38 c -0.873,-0.858 -2.035,-2.011 -2.86,-2.917 2.004,2.257 7.458,4.252 15.568,5.344 14.543,1.955 32.113,0.257 39.246,-3.795"
         id="path370"
         inkscape:connector-curvature="0" /></clipPath><radialGradient
       fx="-0.14471488"
       fy="0.051948946"
       cx="-0.14471488"
       cy="0.051948946"
       r="1"
       gradientUnits="userSpaceOnUse"
       gradientTransform="matrix(65.967224,0,0,-65.967209,303.6167,359.29541)"
       spreadMethod="pad"
       id="radialGradient372"><stop
         style="stop-opacity:1;stop-color:#ffffff"
         offset="0"
         id="stop374" /><stop
         style="stop-opacity:1;stop-color:#000000"
         offset="1"
         id="stop376" /><stop
         style="stop-opacity:1;stop-color:#000000"
         offset="1"
         id="stop378" /><stop
         style="stop-opacity:1;stop-color:#000000"
         offset="1"
         id="stop380" /></radialGradient><clipPath
       clipPathUnits="userSpaceOnUse"
       id="clipPath382"><path
         d="m 300.758,355.207 c 0.952,-0.542 1.671,-1.097 2.166,-1.659 -0.84,0.892 -1.962,2.079 -2.847,2.926 l -1.61,1.405 c -0.342,0.273 -0.747,0.548 -1.22,0.815 1.26,-1.053 2.435,-2.22 3.511,-3.487"
         id="path384"
         inkscape:connector-curvature="0" /></clipPath><radialGradient
       fx="0"
       fy="0"
       cx="0"
       cy="0"
       r="1"
       gradientUnits="userSpaceOnUse"
       gradientTransform="matrix(65.966431,0,0,-65.966415,303.61768,359.29492)"
       spreadMethod="pad"
       id="radialGradient386"><stop
         style="stop-opacity:1;stop-color:#ffffff"
         offset="0"
         id="stop388" /><stop
         style="stop-opacity:1;stop-color:#000000"
         offset="1"
         id="stop390" /><stop
         style="stop-opacity:1;stop-color:#000000"
         offset="1"
         id="stop392" /><stop
         style="stop-opacity:1;stop-color:#000000"
         offset="1"
         id="stop394" /></radialGradient><clipPath
       clipPathUnits="userSpaceOnUse"
       id="clipPath424"><path
         d="m 256.317,295.367 c -0.02,0.011 -0.04,0.022 -0.06,0.033 l 0,0 c 0.02,-0.011 0.04,-0.022 0.06,-0.033 m 4.251,-1.983 c 0.691,-0.264 1.622,-0.584 2.32,-0.825 l 0,0 c 4.438,-1.403 11.842,-1.876 18.15,-1.026 l 0,0 c 1.584,0.212 2.974,0.49 4.147,0.819 l 0,0 c 1.251,0.377 1.356,0.417 3.141,1.082 l 0,0 c 1.166,0.45 1.507,0.615 3.6,1.664 l 0,0 c -1.948,-0.935 -4.887,-1.725 -8.656,-2.231 l 0,0 c -9.919,-1.336 -21.872,-0.214 -26.953,2.5 l 0,0 c 1.56,-0.839 1.842,-0.959 4.251,-1.983 m 31.358,1.714 c 0.126,0.061 0.249,0.122 0.367,0.184 l 0,0 c -0.128,-0.064 -0.25,-0.126 -0.367,-0.184"
         id="path426"
         inkscape:connector-curvature="0" /></clipPath><radialGradient
       fx="0.84553063"
       fy="-0.20863743"
       cx="0.84553063"
       cy="-0.20863743"
       r="1"
       gradientUnits="userSpaceOnUse"
       gradientTransform="matrix(22.291443,0,0,-22.291443,264.26123,292.4707)"
       spreadMethod="pad"
       id="radialGradient432"><stop
         style="stop-opacity:1;stop-color:#ffffff"
         offset="0"
         id="stop434" /><stop
         style="stop-opacity:1;stop-color:#000000"
         offset="1"
         id="stop436" /><stop
         style="stop-opacity:1;stop-color:#000000"
         offset="1"
         id="stop438" /><stop
         style="stop-opacity:1;stop-color:#000000"
         offset="1"
         id="stop440" /></radialGradient><clipPath
       clipPathUnits="userSpaceOnUse"
       id="clipPath448"><path
         d="m 0,595.276 841.89,0 L 841.89,0 0,0 0,595.276 Z"
         id="path450"
         inkscape:connector-curvature="0" /></clipPath><clipPath
       clipPathUnits="userSpaceOnUse"
       id="clipPath456"><path
         d="m 246.341,303.196 55.968,0 0,-8.881 -55.968,0 0,8.881 z"
         id="path458"
         inkscape:connector-curvature="0" /></clipPath><clipPath
       clipPathUnits="userSpaceOnUse"
       id="clipPath460"><path
         d="m 299.673,300.469 -1.919,-1.612 c -2.106,-1.628 -6.416,-3.038 -12.468,-3.853 -12.337,-1.659 -27.243,-0.218 -33.292,3.22 -0.434,0.247 -0.809,0.496 -1.131,0.748 l -0.555,0.449 c -1.23,1.09 -2.818,2.602 -3.967,3.775 0.484,-0.528 1.172,-1.053 2.073,-1.563 7.021,-3.991 24.319,-5.663 38.638,-3.737 7.892,1.06 13.23,2.993 15.257,5.183 -0.78,-0.793 -1.8,-1.876 -2.636,-2.61"
         id="path462"
         inkscape:connector-curvature="0" /></clipPath><radialGradient
       fx="0.21974373"
       fy="0.1953278"
       cx="0.21974373"
       cy="0.1953278"
       r="1"
       gradientUnits="userSpaceOnUse"
       gradientTransform="matrix(70.177978,0,0,-70.177963,229.21924,306.75586)"
       spreadMethod="pad"
       id="radialGradient464"><stop
         style="stop-opacity:1;stop-color:#ffffff"
         offset="0"
         id="stop466" /><stop
         style="stop-opacity:1;stop-color:#000000"
         offset="1"
         id="stop468" /><stop
         style="stop-opacity:1;stop-color:#000000"
         offset="1"
         id="stop470" /><stop
         style="stop-opacity:1;stop-color:#000000"
         offset="1"
         id="stop472" /></radialGradient><clipPath
       clipPathUnits="userSpaceOnUse"
       id="clipPath492"><path
         d="m 238.026,320.409 -0.079,0.287 c 0.024,-0.095 0.05,-0.191 0.079,-0.287 m 72.688,0.035 c 0.008,0.03 0.015,0.059 0.023,0.088 l 0,0 -0.023,-0.088 z M 290.433,309.63 c -18.119,-3.256 -40.011,-0.428 -48.895,6.322 l 0,0 c -1.902,1.444 -3.053,2.949 -3.512,4.457 l 0,0 0.878,-3.189 c 0.389,-1.249 0.987,-2.868 1.417,-4.091 l 0,0 c 0.5,-1.287 1.544,-2.565 3.165,-3.798 l 0,0 c 8.355,-6.346 28.939,-9.009 45.975,-5.946 l 0,0 c 10.582,1.903 17.305,5.566 18.88,9.588 l 0,0 c 0.673,1.842 1.48,4.35 2.058,6.251 l 0,0 0.315,1.22 c -1.202,-4.519 -8.491,-8.693 -20.281,-10.814"
         id="path494"
         inkscape:connector-curvature="0" /></clipPath><linearGradient
       x1="0"
       y1="0"
       x2="1"
       y2="0"
       gradientUnits="userSpaceOnUse"
       gradientTransform="matrix(113.32164,-13.997238,-13.997238,-113.32162,230.41602,318.66699)"
       spreadMethod="pad"
       id="linearGradient500"><stop
         style="stop-opacity:1;stop-color:#3f40ff"
         offset="0"
         id="stop502" /><stop
         style="stop-color:#20cae3;stop-opacity:1;"
         offset="1"
         id="stop504" /><stop
         style="stop-opacity:1;stop-color:#1fe345"
         offset="1"
         id="stop506" /><stop
         style="stop-opacity:1;stop-color:#1fe345"
         offset="1"
         id="stop508" /></linearGradient><clipPath
       clipPathUnits="userSpaceOnUse"
       id="clipPath516"><path
         d="m 0,595.276 841.89,0 L 841.89,0 0,0 0,595.276 Z"
         id="path518"
         inkscape:connector-curvature="0" /></clipPath><clipPath
       clipPathUnits="userSpaceOnUse"
       id="clipPath524"><path
         d="m 236.56,336.873 75.652,0 0,-16.893 -75.652,0 0,16.893 z"
         id="path526"
         inkscape:connector-curvature="0" /></clipPath><clipPath
       clipPathUnits="userSpaceOnUse"
       id="clipPath528"><path
         d="m 311.73,334.979 c 0.169,-1.32 0.389,-3.079 0.479,-4.405 0.197,-3.934 -7.61,-7.722 -21.172,-9.548 -18.753,-2.52 -41.41,-0.33 -50.606,4.895 -2.716,1.544 -3.953,3.178 -3.867,4.782 0.124,1.321 0.293,3.087 0.494,4.4 l 0.347,1.77 c -0.383,-1.724 0.791,-3.499 3.723,-5.163 9.011,-5.119 31.21,-7.268 49.583,-4.796 13.837,1.86 21.559,5.812 20.679,9.833 l 0.34,-1.768"
         id="path530"
         inkscape:connector-curvature="0" /></clipPath><radialGradient
       fx="0.23918319"
       fy="0.13640912"
       cx="0.23918319"
       cy="0.13640912"
       r="1"
       gradientUnits="userSpaceOnUse"
       gradientTransform="matrix(115.3295,0.24478049,0.27802997,-130.99515,202.53576,323.47657)"
       spreadMethod="pad"
       id="radialGradient532"><stop
         style="stop-opacity:1;stop-color:#ffffff"
         offset="0"
         id="stop534" /><stop
         style="stop-opacity:1;stop-color:#000000"
         offset="1"
         id="stop536" /><stop
         style="stop-opacity:1;stop-color:#000000"
         offset="1"
         id="stop538" /><stop
         style="stop-opacity:1;stop-color:#000000"
         offset="1"
         id="stop540" /></radialGradient><clipPath
       clipPathUnits="userSpaceOnUse"
       id="clipPath560"><path
         d="m 245.09,357.955 58.671,0 0,-14.439 -58.671,0 0,14.439 z"
         id="path562"
         inkscape:connector-curvature="0" /></clipPath><clipPath
       clipPathUnits="userSpaceOnUse"
       id="clipPath564"><path
         d="m 300.077,356.474 c 0.869,-0.863 2.025,-2.018 2.847,-2.926 3.21,-3.642 -2.983,-7.525 -15.584,-9.221 -14.544,-1.955 -32.115,-0.257 -39.248,3.795 -3.154,1.793 -3.739,3.745 -2.148,5.536 0.842,0.891 1.971,2.074 2.86,2.917 l 1.592,1.38 c -2.11,-1.706 -1.868,-3.641 1.223,-5.397 6.179,-3.51 21.402,-4.982 34.002,-3.287 11.635,1.565 16.964,5.282 12.846,8.608 l 1.61,-1.405"
         id="path566"
         inkscape:connector-curvature="0" /></clipPath><radialGradient
       fx="0.32793218"
       fy="0.14382993"
       cx="0.32793218"
       cy="0.14382993"
       r="1"
       gradientUnits="userSpaceOnUse"
       gradientTransform="matrix(127.64061,0,0,-127.64059,197.19775,365.42969)"
       spreadMethod="pad"
       id="radialGradient568"><stop
         style="stop-opacity:1;stop-color:#ffffff"
         offset="0"
         id="stop570" /><stop
         style="stop-opacity:1;stop-color:#000000"
         offset="1"
         id="stop572" /><stop
         style="stop-opacity:1;stop-color:#000000"
         offset="1"
         id="stop574" /><stop
         style="stop-opacity:1;stop-color:#000000"
         offset="1"
         id="stop576" /></radialGradient><clipPath
       clipPathUnits="userSpaceOnUse"
       id="clipPath596"><path
         d="m 252.612,287.451 43.144,0 0,-8.37 -43.144,0 0,8.37 z"
         id="path598"
         inkscape:connector-curvature="0" /></clipPath><linearGradient
       inkscape:collect="always"
       xlink:href="#linearGradient24"
       id="linearGradient4869"
       gradientUnits="userSpaceOnUse"
       gradientTransform="matrix(-82.611542,10.422943,10.422943,82.611557,314.74316,315.86963)"
       spreadMethod="pad"
       x1="0.080615439"
       y1="0.028348289"
       x2="1"
       y2="0" /><radialGradient
       inkscape:collect="always"
       xlink:href="#radialGradient56"
       id="radialGradient4871"
       gradientUnits="userSpaceOnUse"
       gradientTransform="matrix(61.40535,0,0,-61.40535,305.53467,298.22363)"
       spreadMethod="pad"
       cx="0"
       cy="0"
       fx="0"
       fy="0"
       r="1" /><radialGradient
       inkscape:collect="always"
       xlink:href="#radialGradient92"
       id="radialGradient4873"
       gradientUnits="userSpaceOnUse"
       gradientTransform="matrix(111.84471,0,0,-111.8447,343.31055,307.33154)"
       spreadMethod="pad"
       cx="0"
       cy="0"
       fx="0"
       fy="0"
       r="1" /><radialGradient
       inkscape:collect="always"
       xlink:href="#radialGradient106"
       id="radialGradient4875"
       gradientUnits="userSpaceOnUse"
       gradientTransform="matrix(111.84122,0,0,-111.84122,343.30908,307.33105)"
       spreadMethod="pad"
       cx="0"
       cy="0"
       fx="0"
       fy="0"
       r="1" /><linearGradient
       inkscape:collect="always"
       xlink:href="#linearGradient152"
       id="linearGradient4877"
       gradientUnits="userSpaceOnUse"
       gradientTransform="matrix(-73.056045,-11.217255,-11.217255,73.056061,317.31592,320.6626)"
       spreadMethod="pad"
       x1="0"
       y1="0"
       x2="1.622335"
       y2="-0.29981369" /><radialGradient
       inkscape:collect="always"
       xlink:href="#radialGradient184"
       id="radialGradient4879"
       gradientUnits="userSpaceOnUse"
       gradientTransform="matrix(111.78856,0,0,-111.78856,323.78027,342.28906)"
       spreadMethod="pad"
       cx="0"
       cy="0"
       fx="0"
       fy="0"
       r="1" /><radialGradient
       inkscape:collect="always"
       xlink:href="#radialGradient198"
       id="radialGradient4881"
       gradientUnits="userSpaceOnUse"
       gradientTransform="matrix(111.79272,0,0,-111.79272,323.77881,342.29004)"
       spreadMethod="pad"
       cx="0"
       cy="0"
       fx="0"
       fy="0"
       r="1" /><radialGradient
       inkscape:collect="always"
       xlink:href="#radialGradient244"
       id="radialGradient4883"
       gradientUnits="userSpaceOnUse"
       gradientTransform="matrix(79.985992,0,0,-80.291092,326.62061,333.74561)"
       spreadMethod="pad"
       cx="0"
       cy="0"
       fx="0"
       fy="0"
       r="1" /><radialGradient
       inkscape:collect="always"
       xlink:href="#radialGradient280"
       id="radialGradient4885"
       gradientUnits="userSpaceOnUse"
       gradientTransform="matrix(33.540726,0,0,-33.886368,255.48975,360.7334)"
       spreadMethod="pad"
       cx="0"
       cy="0"
       fx="0"
       fy="0"
       r="1" /><radialGradient
       inkscape:collect="always"
       xlink:href="#radialGradient304"
       id="radialGradient4887"
       gradientUnits="userSpaceOnUse"
       gradientTransform="matrix(33.542862,0,0,-33.888519,255.48633,360.73096)"
       spreadMethod="pad"
       cx="0"
       cy="0"
       fx="0"
       fy="0"
       r="1" /><radialGradient
       inkscape:collect="always"
       xlink:href="#radialGradient336"
       id="radialGradient4889"
       gradientUnits="userSpaceOnUse"
       gradientTransform="matrix(51.70404,0,0,-50.914185,302.37793,353.17236)"
       spreadMethod="pad"
       cx="0"
       cy="0"
       fx="0"
       fy="0"
       r="1" /><radialGradient
       inkscape:collect="always"
       xlink:href="#radialGradient372"
       id="radialGradient4891"
       gradientUnits="userSpaceOnUse"
       gradientTransform="matrix(65.967224,0,0,-65.967209,303.6167,359.29541)"
       spreadMethod="pad"
       cx="-0.14471488"
       cy="0.051948946"
       fx="-0.14471488"
       fy="0.051948946"
       r="1" /><radialGradient
       inkscape:collect="always"
       xlink:href="#radialGradient386"
       id="radialGradient4893"
       gradientUnits="userSpaceOnUse"
       gradientTransform="matrix(65.966431,0,0,-65.966415,303.61768,359.29492)"
       spreadMethod="pad"
       cx="0"
       cy="0"
       fx="0"
       fy="0"
       r="1" /><radialGradient
       inkscape:collect="always"
       xlink:href="#radialGradient432"
       id="radialGradient4895"
       gradientUnits="userSpaceOnUse"
       gradientTransform="matrix(22.291443,0,0,-22.291443,264.26123,292.4707)"
       spreadMethod="pad"
       cx="-0.13177101"
       cy="-0.065885507"
       fx="-0.13177101"
       fy="-0.065885507"
       r="1" /><radialGradient
       inkscape:collect="always"
       xlink:href="#radialGradient464"
       id="radialGradient4897"
       gradientUnits="userSpaceOnUse"
       gradientTransform="matrix(70.177978,0,0,-70.177963,229.21924,306.75586)"
       spreadMethod="pad"
       cx="0.21974373"
       cy="0.1953278"
       fx="0.21974373"
       fy="0.1953278"
       r="1" /><linearGradient
       inkscape:collect="always"
       xlink:href="#linearGradient500"
       id="linearGradient4899"
       gradientUnits="userSpaceOnUse"
       gradientTransform="matrix(113.32164,-13.997238,-13.997238,-113.32162,230.41602,318.66699)"
       spreadMethod="pad"
       x1="-0.021427276"
       y1="0.10632911"
       x2="0.7180059"
       y2="0.095312722" /></defs><sodipodi:namedview
     pagecolor="#ffffff"
     bordercolor="#666666"
     borderopacity="1"
     objecttolerance="10"
     gridtolerance="10"
     guidetolerance="10"
     inkscape:pageopacity="0"
     inkscape:pageshadow="2"
     inkscape:window-width="1920"
     inkscape:window-height="1023"
     id="namedview4"
     showgrid="false"
     inkscape:zoom="1.6341172"
     inkscape:cx="61.42666"
     inkscape:cy="122.13761"
     inkscape:window-x="0"
     inkscape:window-y="27"
     inkscape:window-maximized="1"
     inkscape:current-layer="g10"
     units="mm"
     fit-margin-top="9"
     fit-margin-left="6"
     fit-margin-right="6"
     fit-margin-bottom="10" /><g
     id="g10"
     inkscape:groupmode="layer"
     inkscape:label="logo"
     transform="matrix(1.25,0,0,-1.25,-274.44516,485.91101)"><g
       id="g12"><g
         id="g14"
         clip-path="url(#clipPath16)"><g
           id="g20"><g
             id="g22"><path
               inkscape:connector-curvature="0"
               d="m 258.322,329.863 c -13.931,-1.861 -21.545,-5.866 -20.212,-9.89 l 0,0 0.953,-2.571 c 0.407,-0.888 0.926,-2.076 1.376,-2.962 l 0,0 c -1.958,3.927 5.24,7.91 18.827,9.726 l 0,0 c 16.957,2.265 37.441,0.296 45.756,-4.395 l 0,0 c 3,-1.693 4.006,-3.51 3.269,-5.246 l 0,0 c 0.633,1.334 1.397,3.035 1.921,4.358 l 0,0 0.337,0.969 c 0.594,1.773 -0.516,3.615 -3.568,5.337 l 0,0 c -6.352,3.584 -19.383,5.673 -32.903,5.673 l 0,0 c -5.302,0 -10.678,-0.321 -15.756,-0.999 m 49.843,-15.602 c 0.047,0.088 0.089,0.176 0.126,0.264 l 0,0 c -0.043,-0.09 -0.084,-0.178 -0.126,-0.264 m -67.693,0.114 c -0.011,0.022 -0.022,0.044 -0.033,0.065 l 0,0 c 0.011,-0.021 0.022,-0.043 0.033,-0.065"
               style="fill:url(#linearGradient4869);stroke:none"
               id="path34" /></g></g></g></g><g
       id="g36"><g
         id="g38"
         clip-path="url(#clipPath40)"><g
           id="g44"><g
             id="g46" /><g
             id="g66"><g
               style="opacity:0.66999799"
               clip-path="url(#clipPath48)"
               id="g68"><g
                 id="g70"><g
                   clip-path="url(#clipPath52)"
                   id="g72"><g
                     id="g74"><g
                       id="g76"><path
                         inkscape:connector-curvature="0"
                         d="m 300.399,301.336 -1.965,-1.649 c -2.157,-1.67 -6.57,-3.113 -12.768,-3.947 -12.635,-1.7 -27.9,-0.221 -34.095,3.297 -0.445,0.254 -0.829,0.508 -1.158,0.767 l -0.57,0.46 c -1.259,1.114 -2.885,2.665 -4.062,3.867 0.496,-0.541 1.201,-1.081 2.123,-1.603 7.19,-4.087 24.909,-5.801 39.571,-3.828 8.082,1.085 13.55,3.068 15.625,5.31 -0.801,-0.814 -1.845,-1.922 -2.701,-2.674"
                         style="fill:url(#radialGradient4871);stroke:none"
                         id="path78" /></g></g></g></g></g></g></g><g
           id="g80"><g
             id="g82" /><g
             id="g116"><g
               style="opacity:0.39999402"
               clip-path="url(#clipPath84)"
               id="g118"><g
                 id="g120"><g
                   clip-path="url(#clipPath88)"
                   id="g122"><g
                     id="g124"><g
                       id="g126"><path
                         inkscape:connector-curvature="0"
                         d="m 296.668,304.232 c 1.288,1.371 2.49,2.833 3.596,4.372 -7.022,3.989 -24.322,5.664 -38.64,3.738 -12.482,-1.679 -18.579,-5.539 -15.283,-9.146 1.149,-1.173 2.736,-2.685 3.967,-3.775 l 0.555,-0.449 c -4.151,3.269 1.061,6.939 12.513,8.48 12.337,1.658 27.243,0.216 33.292,-3.22"
                         style="fill:url(#radialGradient4873);stroke:none"
                         id="path128" /></g></g></g></g><g
                 id="g130"><g
                   clip-path="url(#clipPath102)"
                   id="g132"><g
                     id="g134"><g
                       id="g136"><path
                         inkscape:connector-curvature="0"
                         d="m 296.668,304.232 c 3.082,-1.751 3.272,-3.682 1.086,-5.375 l 1.919,1.612 c 0.8,0.772 1.874,1.8 2.636,2.61 1.651,1.782 1.106,3.735 -2.045,5.525 -1.106,-1.539 -2.308,-3.001 -3.596,-4.372"
                         style="fill:url(#radialGradient4875);stroke:none"
                         id="path138" /></g></g></g></g></g></g></g></g></g><g
       id="g140"><g
         id="g142"
         clip-path="url(#clipPath144)"><g
           id="g148"><g
             id="g150"><path
               inkscape:connector-curvature="0"
               d="m 238.422,319.442 -0.08,0.243 c 0.024,-0.081 0.05,-0.162 0.08,-0.243 m 71.859,0.026 c 0.009,0.026 0.017,0.053 0.025,0.08 l 0,0 -0.025,-0.08 z m -20.05,-9.038 c -17.913,-2.724 -39.554,-0.357 -48.34,5.286 l 0,0 c -1.877,1.207 -3.016,2.465 -3.469,3.726 l 0,0 0.866,-2.665 c 0.386,-1.044 0.976,-2.398 1.402,-3.42 l 0,0 c 0.495,-1.077 1.524,-2.146 3.128,-3.177 l 0,0 c 8.26,-5.307 28.611,-7.533 45.454,-4.972 l 0,0 c 10.459,1.589 17.107,4.654 18.665,8.016 l 0,0 c 0.664,1.542 1.463,3.64 2.034,5.228 l 0,0 0.31,1.016 c -1.195,-3.776 -8.399,-7.265 -20.05,-9.038"
               style="fill:url(#linearGradient4877);stroke:none"
               id="path162" /></g></g></g></g><g
       id="g164"><g
         id="g166"
         clip-path="url(#clipPath168)"><g
           id="g172"><g
             id="g174" /><g
             id="g208"><g
               style="opacity:0.25999505"
               clip-path="url(#clipPath176)"
               id="g210"><g
                 id="g212"><g
                   clip-path="url(#clipPath180)"
                   id="g214"><g
                     id="g216"><g
                       id="g218"><path
                         inkscape:connector-curvature="0"
                         d="m 308.34,335.053 c -0.086,1.93 -0.315,3.801 -0.675,5.604 -9.012,5.118 -31.21,7.265 -49.583,4.795 -12.394,-1.667 -19.881,-5.009 -20.677,-8.579 l -0.347,-1.77 c -0.172,-1.318 -0.399,-3.075 -0.494,-4.4 0.207,3.824 7.956,7.467 21.17,9.244 18.752,2.524 41.411,0.332 50.606,-4.894"
                         style="fill:url(#radialGradient4879);stroke:none"
                         id="path220" /></g></g></g></g><g
                 id="g222"><g
                   clip-path="url(#clipPath194)"
                   id="g224"><g
                     id="g226"><g
                       id="g228"><path
                         inkscape:connector-curvature="0"
                         d="m 308.34,335.053 c 2.545,-1.445 3.793,-2.973 3.869,-4.479 -0.119,1.323 -0.281,3.09 -0.479,4.405 l -0.34,1.768 c -0.289,1.319 -1.501,2.645 -3.725,3.91 0.36,-1.803 0.589,-3.674 0.675,-5.604"
                         style="fill:url(#radialGradient4881);stroke:none"
                         id="path230" /></g></g></g></g></g></g></g><g
           id="g232"><g
             id="g234" /><g
             id="g254"><g
               style="opacity:0.39999402"
               clip-path="url(#clipPath236)"
               id="g256"><g
                 id="g258"><g
                   clip-path="url(#clipPath240)"
                   id="g260"><g
                     id="g262"><g
                       id="g264"><path
                         inkscape:connector-curvature="0"
                         d="m 311.732,336.129 c 0.167,-1.319 0.387,-3.078 0.477,-4.404 0.195,-3.934 -7.581,-7.723 -21.091,-9.547 -18.681,-2.522 -41.253,-0.331 -50.414,4.893 -2.705,1.544 -3.939,3.178 -3.852,4.782 0.123,1.321 0.291,3.087 0.493,4.4 l 0.346,1.77 c -0.382,-1.723 0.787,-3.499 3.707,-5.163 8.977,-5.119 31.092,-7.267 49.395,-4.796 13.785,1.862 21.477,5.811 20.6,9.833 l 0.339,-1.768"
                         style="fill:url(#radialGradient4883);stroke:none"
                         id="path266" /></g></g></g></g></g></g></g></g></g><g
       id="g268"><g
         id="g270"
         clip-path="url(#clipPath272)"><g
           id="g276"><g
             id="g278"><path
               inkscape:connector-curvature="0"
               d="m 263.47,362.522 c -6.167,-0.839 -10.526,-2.302 -12.59,-3.99 l 0,0 -1.558,-1.363 c -0.818,-0.815 -1.892,-1.893 -2.692,-2.768 l 0,0 c 2.047,2.183 7.341,4.106 15.142,5.167 l 0,0 c 14.25,1.935 31.466,0.255 38.454,-3.757 l 0,0 c -1.054,1.257 -2.205,2.41 -3.441,3.454 l 0,0 c -4.349,2.497 -13.272,3.952 -22.529,3.952 l 0,0 c -3.629,0 -7.309,-0.223 -10.786,-0.695 m -16.95,-8.242 c 0.036,0.039 0.073,0.08 0.11,0.121 l 0,0 c -0.038,-0.041 -0.075,-0.081 -0.11,-0.121"
               style="fill:url(#radialGradient4885);stroke:none"
               id="path290" /></g></g></g></g><g
       id="g292"><g
         id="g294"
         clip-path="url(#clipPath296)"><g
           id="g300"><g
             id="g302"><path
               inkscape:connector-curvature="0"
               d="m 300.226,355.811 c 0.799,-0.458 1.43,-0.928 1.9,-1.402 l 0,0 c -0.791,0.848 -1.776,1.894 -2.568,2.659 l 0,0 -1.578,1.388 c -0.333,0.274 -0.732,0.544 -1.195,0.809 l 0,0 c 1.236,-1.044 2.387,-2.197 3.441,-3.454 m 2.122,-1.64 c -0.07,0.079 -0.144,0.159 -0.222,0.238 l 0,0 c 0.076,-0.082 0.15,-0.161 0.222,-0.238"
               style="fill:url(#radialGradient4887);stroke:none"
               id="path314" /></g></g></g></g><g
       id="g316"><g
         id="g318"
         clip-path="url(#clipPath320)"><g
           id="g324"><g
             id="g326" /><g
             id="g346"><g
               style="opacity:0.50999499"
               clip-path="url(#clipPath328)"
               id="g348"><g
                 id="g350"><g
                   clip-path="url(#clipPath332)"
                   id="g352"><g
                     id="g354"><g
                       id="g356"><path
                         inkscape:connector-curvature="0"
                         d="m 299.669,357.079 c 0.851,-0.832 1.986,-1.949 2.792,-2.825 3.146,-3.514 -2.926,-7.265 -15.278,-8.9 -14.258,-1.888 -31.486,-0.25 -38.478,3.663 -3.093,1.731 -3.664,3.615 -2.106,5.342 0.825,0.861 1.931,2.005 2.803,2.819 l 1.561,1.332 c -2.068,-1.65 -1.831,-3.517 1.199,-5.211 6.058,-3.389 20.983,-4.811 33.335,-3.173 11.406,1.511 16.631,5.099 12.594,8.308 l 1.578,-1.355"
                         style="fill:url(#radialGradient4889);stroke:none"
                         id="path358" /></g></g></g></g></g></g></g><g
           id="g360"><g
             id="g362" /><g
             id="g396"><g
               style="opacity:0.63999897"
               clip-path="url(#clipPath364)"
               id="g398"><g
                 id="g400"><g
                   clip-path="url(#clipPath368)"
                   id="g402"><g
                     id="g404"><g
                       id="g406"><path
                         inkscape:connector-curvature="0"
                         d="m 300.758,355.207 c -1.076,1.267 -2.251,2.434 -3.511,3.487 -6.18,3.513 -21.402,4.984 -34.003,3.289 -6.293,-0.846 -10.743,-2.323 -12.848,-4.028 l -1.592,-1.38 c -0.873,-0.858 -2.035,-2.011 -2.86,-2.917 2.004,2.257 7.458,4.252 15.568,5.344 14.543,1.955 32.113,0.257 39.246,-3.795"
                         style="fill:url(#radialGradient4891);stroke:none"
                         id="path408" /></g></g></g></g><g
                 id="g410"><g
                   clip-path="url(#clipPath382)"
                   id="g412"><g
                     id="g414"><g
                       id="g416"><path
                         inkscape:connector-curvature="0"
                         d="m 300.758,355.207 c 0.952,-0.542 1.671,-1.097 2.166,-1.659 -0.84,0.892 -1.962,2.079 -2.847,2.926 l -1.61,1.405 c -0.342,0.273 -0.747,0.548 -1.22,0.815 1.26,-1.053 2.435,-2.22 3.511,-3.487"
                         style="fill:url(#radialGradient4893);stroke:none"
                         id="path418" /></g></g></g></g></g></g></g></g></g><g
       id="g420"><g
         id="g422"
         clip-path="url(#clipPath424)"><g
           id="g428"><g
             id="g430"><path
               inkscape:connector-curvature="0"
               d="m 256.317,295.367 c -0.02,0.011 -0.04,0.022 -0.06,0.033 l 0,0 c 0.02,-0.011 0.04,-0.022 0.06,-0.033 m 4.251,-1.983 c 0.691,-0.264 1.622,-0.584 2.32,-0.825 l 0,0 c 4.438,-1.403 11.842,-1.876 18.15,-1.026 l 0,0 c 1.584,0.212 2.974,0.49 4.147,0.819 l 0,0 c 1.251,0.377 1.356,0.417 3.141,1.082 l 0,0 c 1.166,0.45 1.507,0.615 3.6,1.664 l 0,0 c -1.948,-0.935 -4.887,-1.725 -8.656,-2.231 l 0,0 c -9.919,-1.336 -21.872,-0.214 -26.953,2.5 l 0,0 c 1.56,-0.839 1.842,-0.959 4.251,-1.983 m 31.358,1.714 c 0.126,0.061 0.249,0.122 0.367,0.184 l 0,0 c -0.128,-0.064 -0.25,-0.126 -0.367,-0.184"
               style="fill:url(#radialGradient4895);stroke:none"
               id="path442" /></g></g></g></g><g
       id="g444"><g
         id="g446"
         clip-path="url(#clipPath448)"><g
           id="g452"><g
             id="g454" /><g
             id="g474"><g
               style="opacity:0.74000501"
               clip-path="url(#clipPath456)"
               id="g476"><g
                 id="g478"><g
                   clip-path="url(#clipPath460)"
                   id="g480"><g
                     id="g482"><g
                       id="g484"><path
                         inkscape:connector-curvature="0"
                         d="m 299.673,300.469 -1.919,-1.612 c -2.106,-1.628 -6.416,-3.038 -12.468,-3.853 -12.337,-1.659 -27.243,-0.218 -33.292,3.22 -0.434,0.247 -0.809,0.496 -1.131,0.748 l -0.555,0.449 c -1.23,1.09 -2.818,2.602 -3.967,3.775 0.484,-0.528 1.172,-1.053 2.073,-1.563 7.021,-3.991 24.319,-5.663 38.638,-3.737 7.892,1.06 13.23,2.993 15.257,5.183 -0.78,-0.793 -1.8,-1.876 -2.636,-2.61"
                         style="fill:url(#radialGradient4897);stroke:none"
                         id="path486" /></g></g></g></g></g></g></g></g></g><g
       id="g488"><g
         id="g490"
         clip-path="url(#clipPath492)"><g
           id="g496"><g
             id="g498"><path
               inkscape:connector-curvature="0"
               d="m 238.026,320.409 -0.079,0.287 c 0.024,-0.095 0.05,-0.191 0.079,-0.287 m 72.688,0.035 c 0.008,0.03 0.015,0.059 0.023,0.088 l 0,0 -0.023,-0.088 z M 290.433,309.63 c -18.119,-3.256 -40.011,-0.428 -48.895,6.322 l 0,0 c -1.902,1.444 -3.053,2.949 -3.512,4.457 l 0,0 0.878,-3.189 c 0.389,-1.249 0.987,-2.868 1.417,-4.091 l 0,0 c 0.5,-1.287 1.544,-2.565 3.165,-3.798 l 0,0 c 8.355,-6.346 28.939,-9.009 45.975,-5.946 l 0,0 c 10.582,1.903 17.305,5.566 18.88,9.588 l 0,0 c 0.673,1.842 1.48,4.35 2.058,6.251 l 0,0 0.315,1.22 c -1.202,-4.519 -8.491,-8.693 -20.281,-10.814"
               style="fill:url(#linearGradient4899);stroke:none"
               id="path510" /></g></g></g></g><g
       id="g512"><g
         id="g514"
         clip-path="url(#clipPath516)"><g
           id="g520"><g
             id="g522" /><g
             id="g542"><g
               clip-path="url(#clipPath524)"
               id="g544"
               style="opacity:0.47999603"><g
                 id="g546"><g
                   clip-path="url(#clipPath528)"
                   id="g548"><g
                     id="g550"><g
                       id="g552"><path
                         d="m 311.73,334.979 c 0.169,-1.32 0.389,-3.079 0.479,-4.405 0.197,-3.934 -7.61,-7.722 -21.172,-9.548 -18.753,-2.52 -41.41,-0.33 -50.606,4.895 -2.716,1.544 -3.953,3.178 -3.867,4.782 0.124,1.321 0.293,3.087 0.494,4.4 l 0.347,1.77 c -0.383,-1.724 0.791,-3.499 3.723,-5.163 9.011,-5.119 31.21,-7.268 49.583,-4.796 13.837,1.86 21.559,5.812 20.679,9.833 l 0.34,-1.768"
                         style="fill:url(#radialGradient532);stroke:none"
                         id="path554"
                         inkscape:connector-curvature="0" /></g></g></g></g></g></g></g><g
           id="g556"><g
             id="g558" /><g
             id="g578"><g
               clip-path="url(#clipPath560)"
               id="g580"
               style="opacity:0.55000299"><g
                 id="g582"><g
                   clip-path="url(#clipPath564)"
                   id="g584"><g
                     id="g586"><g
                       id="g588"><path
                         d="m 300.077,356.474 c 0.869,-0.863 2.025,-2.018 2.847,-2.926 3.21,-3.642 -2.983,-7.525 -15.584,-9.221 -14.544,-1.955 -32.115,-0.257 -39.248,3.795 -3.154,1.793 -3.739,3.745 -2.148,5.536 0.842,0.891 1.971,2.074 2.86,2.917 l 1.592,1.38 c -2.11,-1.706 -1.868,-3.641 1.223,-5.397 6.179,-3.51 21.402,-4.982 34.002,-3.287 11.635,1.565 16.964,5.282 12.846,8.608 l 1.61,-1.405"
                         style="fill:url(#radialGradient568);stroke:none"
                         id="path590"
                         inkscape:connector-curvature="0" /></g></g></g></g></g></g></g><g
           id="g592"><g
             id="g594" /><g
             id="g600"><g
               clip-path="url(#clipPath596)"
               id="g602"
               style="opacity:0.17999303"><g
                 transform="translate(295.7559,283.2676)"
                 id="g604"><path
                   d="m 0,0 c 0,-2.313 -9.657,-4.187 -21.572,-4.187 -11.914,0 -21.572,1.874 -21.572,4.187 0,2.312 9.658,4.184 21.572,4.184 C -9.657,4.184 0,2.312 0,0"
                   style="fill:#4c4c4c;fill-opacity:1;fill-rule:nonzero;stroke:none"
                   id="path606"
                   inkscape:connector-curvature="0" /></g></g></g></g><path
           d="m 338.239,320.771 4.918,0 0,-29.724 -4.918,0 0,29.724 z"
           style="fill:#333333;fill-opacity:1;fill-rule:nonzero;stroke:none"
           id="path608"
           inkscape:connector-curvature="0" /><path
           d="m 473.133,320.524 4.919,0 0,-29.723 -4.919,0 0,29.723 z"
           style="fill:#333333;fill-opacity:1;fill-rule:nonzero;stroke:none"
           id="path610"
           inkscape:connector-curvature="0" /><g
           id="g612"
           transform="translate(367.5298,320.6245)"><path
             d="m 0,0 0,-19.905 -11.524,19.882 0,0.004 -0.003,0 -0.002,0.003 -0.004,-0.003 -4.91,0 0,-29.723 4.919,0 0,19.912 L 0,-29.713 l 0,-0.021 4.918,0 L 4.918,0 0,0 Z"
             style="fill:#333333;fill-opacity:1;fill-rule:nonzero;stroke:none"
             id="path614"
             inkscape:connector-curvature="0" /></g><g
           id="g616"
           transform="translate(532.0791,320.6245)"><path
             d="m 0,0 0,-19.905 -11.525,19.882 0,0.004 -0.002,0 -0.002,0.003 -0.003,-0.003 -4.911,0 0,-29.723 4.918,0 0,19.912 L 0,-29.713 l 0,-0.021 4.918,0 L 4.918,0 0,0 Z"
             style="fill:#333333;fill-opacity:1;fill-rule:nonzero;stroke:none"
             id="path618"
             inkscape:connector-curvature="0" /></g><g
           id="g620"
           transform="translate(439.957,304.1392)"><path
             d="m 0,0 c 2.465,1.584 4.09,4.357 4.094,7.498 -0.008,4.869 -3.905,8.877 -8.813,8.885 l -9.265,0 0,-29.591 4.919,0 0,24.704 4.346,0 c 2.112,-0.005 3.893,-1.756 3.894,-3.998 -0.001,-2.249 -1.783,-4 -3.894,-4.005 l -4.297,0 0,-4.888 4.118,0 7.289,-11.988 5.744,0 L 0,0 Z"
             style="fill:#333333;fill-opacity:1;fill-rule:nonzero;stroke:none"
             id="path622"
             inkscape:connector-curvature="0" /></g><g
           id="g624"
           transform="translate(349.4678,333.5811)"><path
             d="m 0,0 0,0.004 -5.11,0 0,22.885 5.109,0 0,-10e-4 C 6.318,22.877 11.43,17.765 11.44,11.445 11.43,5.126 6.319,0.013 0,0 m -0.001,28.543 0,-10e-4 -10.764,0 0,-34.192 10.764,0 0,-0.003 c 9.445,0 17.094,7.656 17.096,17.098 -0.002,9.444 -7.651,17.096 -17.096,17.098"
             style="fill:#333333;fill-opacity:1;fill-rule:nonzero;stroke:none"
             id="path626"
             inkscape:connector-curvature="0" /></g><g
           id="g628"
           transform="translate(537.0791,362.5615)"><path
             d="m 0,0 -24.092,0 0,-5.12 9.166,0 0,-29.067 5.655,0 0,29.067 L 0,-5.12 0,0 Z"
             style="fill:#333333;fill-opacity:1;fill-rule:nonzero;stroke:none"
             id="path630"
             inkscape:connector-curvature="0" /></g><g
           id="g632"
           transform="translate(391.168,333.8682)"><path
             d="m 0,0 0.001,9.009 10.8,0 0,5.026 -10.8,0 -0.001,8.772 11.604,-0.002 0,5.653 -17.258,0 0,-34.111 17.979,0 0,5.653 L 0,0 Z"
             style="fill:#333333;fill-opacity:1;fill-rule:nonzero;stroke:none"
             id="path634"
             inkscape:connector-curvature="0" /></g><g
           id="g636"
           transform="translate(410.0093,295.7002)"><path
             d="m 0,0 0,7.834 9.395,0 0,4.372 -9.395,0 0,7.629 10.092,-0.002 0,4.917 -15.009,0 0,-29.668 15.637,0 L 10.72,0 0,0 Z"
             style="fill:#333333;fill-opacity:1;fill-rule:nonzero;stroke:none"
             id="path638"
             inkscape:connector-curvature="0" /></g><g
           id="g640"
           transform="translate(435.7051,333.0508)"><path
             d="m 0,0 0,29.076 -5.654,0 0,-34.176 0.019,0 0,-0.013 17.802,0 0,5.113 L 0,0 Z"
             style="fill:#333333;fill-opacity:1;fill-rule:nonzero;stroke:none"
             id="path642"
             inkscape:connector-curvature="0" /></g><g
           id="g644"
           transform="translate(490.8623,357.5859)"><path
             d="m 0,0 0,5.14 -18.307,0 0,-0.014 -0.019,0 0,-34.354 5.814,0 0,14.716 12.293,0 0,5.114 -12.293,0 0,9.398 L 0,0 Z"
             style="fill:#333333;fill-opacity:1;fill-rule:nonzero;stroke:none"
             id="path646"
             inkscape:connector-curvature="0" /></g><g
           id="g648"
           transform="translate(399.9736,320.6196)"><path
             d="m 0,0 -5.209,0 -6.619,-20.804 -6.64,20.804 -5.207,0 9.498,-29.76 0.106,0.033 0,-0.008 4.587,0 0.022,-0.008 L 0,0 Z"
             style="fill:#333333;fill-opacity:1;fill-rule:nonzero;stroke:none"
             id="path650"
             inkscape:connector-curvature="0" /></g><g
           id="g652"
           transform="translate(465.126,305.5137)"><path
             d="m 0,0 c -1.64,1.506 -3.865,2.415 -6.291,2.432 l 0,0.007 c -2.347,0.006 -4.246,1.905 -4.251,4.254 0.005,2.349 1.904,4.248 4.251,4.252 1.874,-0.004 3.463,-1.218 4.028,-2.903 l 3.752,1.954 c -1.286,3.024 -4.284,5.145 -7.78,5.147 -4.67,-0.002 -8.45,-3.784 -8.452,-8.45 0.002,-4.645 3.747,-8.411 8.387,-8.449 l 0,-0.011 c 1.401,0 2.64,-0.523 3.512,-1.325 0.873,-0.809 1.365,-1.847 1.365,-2.991 0,-1.144 -0.492,-2.182 -1.365,-2.991 -0.872,-0.803 -2.111,-1.324 -3.512,-1.324 -1.406,0 -2.644,0.521 -3.516,1.324 -0.52,0.481 -0.899,1.045 -1.125,1.662 l -3.647,-2.154 c 0.473,-0.987 1.132,-1.871 1.928,-2.6 1.655,-1.52 3.906,-2.434 6.36,-2.434 2.451,0 4.702,0.914 6.356,2.434 1.653,1.512 2.725,3.683 2.722,6.083 C 2.725,-3.684 1.653,-1.513 0,0"
             style="fill:#333333;fill-opacity:1;fill-rule:nonzero;stroke:none"
             id="path654"
             inkscape:connector-curvature="0" /></g><g
           id="g656"
           transform="translate(490.8711,313.0576)"><path
             d="m 0,0 c -1.707,-1.838 -2.79,-4.408 -2.79,-7.282 0,-2.877 1.083,-5.446 2.79,-7.283 1.715,-1.838 4.004,-2.928 6.531,-2.93 2.531,0.002 4.819,1.092 6.534,2.93 1.707,1.837 2.791,4.406 2.789,7.283 C 15.856,-4.408 14.772,-1.838 13.065,0 11.35,1.839 9.062,2.927 6.531,2.93 4.004,2.927 1.715,1.839 0,0 m 6.531,-22.19 c -3.915,-0.002 -7.461,1.72 -9.97,4.429 -2.516,2.706 -4.044,6.417 -4.044,10.479 0,4.061 1.528,7.771 4.044,10.477 2.509,2.708 6.055,4.431 9.97,4.43 3.918,0.001 7.466,-1.722 9.974,-4.43 2.516,-2.706 4.046,-6.416 4.046,-10.477 0,-4.062 -1.53,-7.773 -4.046,-10.479 -2.507,-2.706 -6.05,-4.429 -9.965,-4.429 l -0.009,0 z"
             style="fill:#333333;fill-opacity:1;fill-rule:nonzero;stroke:none"
             id="path658"
             inkscape:connector-curvature="0" /></g><path
           d="m 698.97,307.348 -365.749,0 0,0.541 365.749,0 0,-0.541 z"
           style="fill:#ffffff;fill-opacity:1;fill-rule:nonzero;stroke:#ffffff;stroke-width:0.25;stroke-linecap:butt;stroke-linejoin:miter;stroke-miterlimit:4;stroke-dasharray:none;stroke-opacity:1"
           id="path660"
           inkscape:connector-curvature="0" /></g></g><g
       id="g6230"
       style="fill:#464646;fill-opacity:1;stroke:#464646;stroke-opacity:1"><path
         transform="matrix(0.8,0,0,-0.8,0,595.276)"
         inkscape:connector-curvature="0"
         id="path5366"
         d="m 422.88053,370.30401 0,-9.94421 2.90677,0 2.90677,0 0,9.94421 0,9.94421 -2.90677,0 -2.90677,0 0,-9.94421 z"
         style="fill:#464646;fill-opacity:1;stroke:#464646;stroke-width:0.30597562;stroke-opacity:1" /><path
         transform="matrix(0.8,0,0,-0.8,0,595.276)"
         inkscape:connector-curvature="0"
         id="path5368"
         d="m 422.88053,351.02755 0,-7.80238 2.90677,0 2.90677,0 0,7.80238 0,7.80237 -2.90677,0 -2.90677,0 0,-7.80237 z"
         style="fill:#464646;fill-opacity:1;stroke:#464646;stroke-width:0.30597562;stroke-opacity:1" /><path
         transform="matrix(0.8,0,0,-0.8,0,595.276)"
         inkscape:connector-curvature="0"
         id="path5370"
         d="m 439.09724,351.16945 0,-7.66047 2.9533,0.0876 2.95329,0.0876 4.09496,7.03744 c 2.25222,3.87059 4.23262,7.2784 4.40088,7.5729 0.28343,0.49608 0.0578,0.53545 -3.06795,0.53545 l -3.37388,0 -0.99704,-1.75936 -0.99704,-1.75936 -0.0918,1.75936 -0.0918,1.75936 -2.8915,0 -2.8915,0 0,-7.66047 z"
         style="fill:#464646;fill-opacity:1;stroke:#464646;stroke-width:0.30597562;stroke-opacity:1" /><path
         transform="matrix(0.8,0,0,-0.8,0,595.276)"
         inkscape:connector-curvature="0"
         id="path5372"
         d="m 454.469,371.5988 c -2.73659,-4.75101 -5.32881,-9.22799 -5.76049,-9.94884 l -0.78488,-1.31064 3.41943,0.0867 3.41943,0.0867 2.13051,3.67171 c 1.17179,2.01944 2.25969,3.80251 2.41756,3.96238 0.17893,0.18119 0.28705,-1.23062 0.28705,-3.7482 l 0,-4.03888 2.90676,0 2.90677,0 0,9.94421 0,9.94421 -2.98326,-0.006 -2.98326,-0.006 -4.97562,-8.63821 z"
         style="fill:#464646;fill-opacity:1;stroke:#464646;stroke-width:0.30597562;stroke-opacity:1" /><path
         transform="matrix(0.8,0,0,-0.8,0,595.276)"
         inkscape:connector-curvature="0"
         id="path5374"
         d="m 439.09724,370.30401 0,-9.94421 2.90677,0 2.90677,0 0,9.94421 0,9.94421 -2.90677,0 -2.90677,0 0,-9.94421 z"
         style="fill:#464646;fill-opacity:1;stroke:#464646;stroke-width:0.30597562;stroke-opacity:1" /><path
         transform="matrix(0.8,0,0,-0.8,0,595.276)"
         inkscape:connector-curvature="0"
         id="path6160"
         d="m 423.2477,370.30401 0,-9.63823 2.6008,0 2.60079,0 0,9.63823 0,9.63823 -2.60079,0 -2.6008,0 0,-9.63823 z"
         style="fill:#464646;fill-opacity:1;stroke:#464646;stroke-width:0.30597562;stroke-opacity:1" /><path
         transform="matrix(0.8,0,0,-0.8,0,595.276)"
         inkscape:connector-curvature="0"
         id="path6162"
         d="m 423.2477,351.02755 0,-7.49641 2.6008,0 2.60079,0 0,7.49641 0,7.4964 -2.60079,0 -2.6008,0 0,-7.4964 z"
         style="fill:#464646;fill-opacity:1;stroke:#464646;stroke-width:0.30597562;stroke-opacity:1" /><path
         transform="matrix(0.8,0,0,-0.8,0,595.276)"
         inkscape:connector-curvature="0"
         id="path6164"
         d="m 439.46441,351.18053 0,-7.34341 2.67729,0.009 2.67728,0.009 3.29387,5.72823 c 1.81163,3.15052 3.71622,6.45109 4.23243,7.3346 l 0.93854,1.60637 -3.02766,0 -3.02767,0 -1.03262,-1.83586 c -0.56794,-1.00971 -1.1445,-1.83585 -1.28125,-1.83585 -0.13674,0 -0.24862,0.82614 -0.24862,1.83585 l 0,1.83586 -2.6008,0 -2.60079,0 0,-7.34342 z"
         style="fill:#464646;fill-opacity:1;stroke:#464646;stroke-width:0.30597562;stroke-opacity:1" /><path
         transform="matrix(0.8,0,0,-0.8,0,595.276)"
         inkscape:connector-curvature="0"
         id="path6166"
         d="m 438.85246,370.30401 0,-9.94421 3.05975,0 3.05976,0 0,9.94421 0,9.94421 -3.05976,0 -3.05975,0 0,-9.94421 z"
         style="fill:#464646;fill-opacity:1;stroke:#464646;stroke-width:0.30597562;stroke-opacity:1" /><path
         transform="matrix(0.8,0,0,-0.8,0,595.276)"
         inkscape:connector-curvature="0"
         id="path6168"
         d="m 423.55368,312.74846 0,-21.29743 8.33783,0.13756 c 7.74025,0.1277 8.51356,0.191 10.78951,0.88311 3.58479,1.09012 6.37231,2.76695 9.04843,5.44307 4.14585,4.14585 6.1363,8.87925 6.18691,14.71284 0.0521,6.009 -1.86657,10.66851 -6.18222,15.01326 -2.21726,2.23221 -3.08906,2.87124 -5.53827,4.05957 -4.22018,2.0476 -6.14199,2.34546 -15.13289,2.34546 l -7.5093,0 0,-21.29744 z m 15.60475,14.24419 c 7.00579,-1.11721 11.97171,-7.01243 11.97171,-14.21206 0,-5.06015 -2.18484,-9.18075 -6.32491,-11.92877 -2.80222,-1.86001 -4.5851,-2.3156 -9.85396,-2.518 l -4.66613,-0.17926 0,14.57994 0,14.57994 3.44223,-0.002 c 1.89322,-10e-4 4.3372,-0.14504 5.43106,-0.31947 l 0,1.3e-4 z"
         style="fill:#464646;fill-opacity:1;stroke:#464646;stroke-width:0.30597562;stroke-opacity:1" /><path
         transform="matrix(0.8,0,0,-0.8,0,595.276)"
         inkscape:connector-curvature="0"
         id="path6170"
         d="m 481.99502,312.47462 0,-21.26531 10.70915,0 10.70914,0 0,3.51872 0,3.51872 -7.34341,0 -7.34342,0 0,5.50756 0,5.50756 6.73147,0 6.73146,0 0,3.05976 0,3.05976 -6.73146,0 -6.73147,0 0,5.81353 0,5.81354 7.80238,0 7.80238,0 0,3.36573 0,3.36573 -11.16811,0 -11.16811,0 0,-21.2653 z"
         style="fill:#464646;fill-opacity:1;stroke:#464646;stroke-width:0.30597562;stroke-opacity:1" /><path
         transform="matrix(0.8,0,0,-0.8,0,595.276)"
         inkscape:connector-curvature="0"
         id="path6172"
         d="m 459.24422,379.2538 c -0.89268,-1.43356 -10.60054,-18.35878 -10.60054,-18.48155 0,-0.0707 1.3303,-0.0892 2.95622,-0.0411 l 2.95623,0.0876 2.30989,3.89784 c 1.59618,2.69347 2.40814,3.79988 2.62784,3.58077 0.17486,-0.1744 0.36388,-1.96285 0.42005,-3.97434 l 0.10212,-3.65726 2.57516,0 2.57517,0 0,9.63823 0,9.63823 -2.74673,0 c -2.51745,0 -2.78251,-0.0575 -3.17541,-0.68844 z"
         style="fill:#464646;fill-opacity:1;stroke:#464646;stroke-width:0.30597562;stroke-opacity:1" /><path
         transform="matrix(0.8,0,0,-0.8,0,595.276)"
         inkscape:connector-curvature="0"
         id="path6174"
         d="m 438.92477,370.22752 0.0807,-10.02071 2.98326,-0.0876 2.98326,-0.0876 0,10.10827 0,10.10828 -3.06394,0 -3.06393,0 0.0807,-10.0207 z"
         style="fill:#464646;fill-opacity:1;stroke:#464646;stroke-width:0.30597562;stroke-opacity:1" /><path
         transform="matrix(0.8,0,0,-0.8,0,595.276)"
         inkscape:connector-curvature="0"
         id="path6176"
         d="m 439.46441,351.18053 0,-7.34341 2.70917,0 2.70917,0 4.09879,7.10153 c 2.25433,3.90585 4.14468,7.21038 4.20078,7.34342 0.0561,0.13303 -1.27627,0.24188 -2.96081,0.24188 l -3.0628,0 -0.9646,-1.68595 c -0.53054,-0.92728 -1.0914,-1.6076 -1.24636,-1.51183 -0.15497,0.0958 -0.28175,0.85446 -0.28175,1.68596 l 0,1.51182 -2.6008,0 -2.60079,0 0,-7.34342 z"
         style="fill:#464646;fill-opacity:1;stroke:#464646;stroke-width:0.30597562;stroke-opacity:1" /><path
         transform="matrix(0.8,0,0,-0.8,0,595.276)"
         inkscape:connector-curvature="0"
         id="path6178"
         d="m 459.6588,351.18053 0,-7.64939 2.90677,0 2.90677,0 0,7.64939 0,7.64939 -2.90677,0 -2.90677,0 0,-7.64939 z"
         style="fill:#464646;fill-opacity:1;stroke:#464646;stroke-width:0.30597562;stroke-opacity:1" /><path
         transform="matrix(0.8,0,0,-0.8,0,595.276)"
         inkscape:connector-curvature="0"
         id="path6180"
         d="m 475.39694,358.43021 c -0.20197,-0.52634 -4.72302,-14.70902 -4.72302,-14.81628 0,-0.0455 1.37008,-0.0828 3.04463,-0.0828 l 3.04462,0 2.02076,6.349 c 1.11141,3.49194 2.21137,6.93417 2.44436,7.64939 l 0.42361,1.30039 -3.05079,0 c -2.22858,0 -3.09212,-0.10772 -3.20417,-0.39971 l 0,0 z"
         style="fill:#464646;fill-opacity:1;stroke:#464646;stroke-width:0.30597562;stroke-opacity:1" /><path
         transform="matrix(0.8,0,0,-0.8,0,595.276)"
         inkscape:connector-curvature="0"
         id="path6182"
         d="m 481.58118,377.87691 c -2.8579,-8.80041 -5.3997,-16.88527 -5.3997,-17.17516 0,-0.22871 0.99385,-0.34195 3.00109,-0.34195 l 3.00108,0 1.3197,4.24918 c 0.72584,2.33705 1.42194,4.4146 1.54689,4.61677 0.12954,0.2096 0.85976,-1.61675 1.69893,-4.24917 l 1.47173,-4.61678 3.00657,0 c 1.65362,0 3.00658,0.0964 3.00658,0.21418 0,0.1178 -1.18653,3.93867 -2.63672,8.49082 -1.4502,4.55216 -2.83242,8.93067 -3.07161,9.73003 l -0.43489,1.45339 -2.86979,0 -2.86979,0 -0.77007,-2.37131 0,0 z"
         style="fill:#464646;fill-opacity:1;stroke:#464646;stroke-width:0.30597562;stroke-opacity:1" /><path
         transform="matrix(0.8,0,0,-0.8,0,595.276)"
         inkscape:connector-curvature="0"
         id="path6184"
         d="m 488.80323,358.45857 c 0.0829,-0.21647 1.14809,-3.56043 2.36707,-7.43102 1.21898,-3.8706 2.31587,-7.14596 2.43753,-7.2786 0.12166,-0.13264 1.53914,-0.20148 3.14995,-0.15299 l 2.92875,0.0882 -2.39138,7.4964 -2.39138,7.49641 -3.12564,0.0876 c -2.44868,0.0686 -3.093,0.002 -2.9749,-0.30597 l 0,0 z"
         style="fill:#464646;fill-opacity:1;stroke:#464646;stroke-width:0.30597562;stroke-opacity:1" /><path
         transform="matrix(0.8,0,0,-0.8,0,595.276)"
         inkscape:connector-curvature="0"
         id="path6186"
         d="m 506.47307,351.18053 0,-7.64939 9.17927,0 9.17927,0 0,3.05976 0,3.05976 -6.2725,0 -6.2725,0 0,4.58963 0,4.58963 -2.90677,0 -2.90677,0 0,-7.64939 z"
         style="fill:#464646;fill-opacity:1;stroke:#464646;stroke-width:0.30597562;stroke-opacity:1" /><path
         transform="matrix(0.8,0,0,-0.8,0,595.276)"
         inkscape:connector-curvature="0"
         id="path6188"
         d="m 506.47307,370.457 0,-10.0972 8.87329,0 8.8733,0 0,2.14183 0,2.14183 -5.96653,0 -5.96652,0 0,5.0486 0,5.0486 6.73146,0 6.73146,0 0,2.90676 0,2.90677 -9.63823,0 -9.63823,0 0,-10.09719 z"
         style="fill:#464646;fill-opacity:1;stroke:#464646;stroke-width:0.30597562;stroke-opacity:1" /><path
         transform="matrix(0.8,0,0,-0.8,0,595.276)"
         inkscape:connector-curvature="0"
         id="path6190"
         d="m 548.52292,373.05779 -4.55888,-7.4964 -2.52878,0 -2.52878,0 0,-2.60079 0,-2.6008 7.03744,0 c 3.8706,0 7.03744,0.12035 7.03744,0.26744 0,0.1471 -0.68844,0.93529 -1.52987,1.75154 -0.84144,0.81626 -1.52988,1.56182 -1.52988,1.65682 0,0.095 2.20302,3.80218 4.89561,8.23819 2.69258,4.43601 4.89561,8.11384 4.89561,8.17294 0,0.0591 -1.49199,0.10746 -3.31552,0.10746 l -3.31552,0 -4.55887,-7.4964 z"
         style="fill:#464646;fill-opacity:1;stroke:#464646;stroke-width:0.30597562;stroke-opacity:1" /><path
         transform="matrix(0.8,0,0,-0.8,0,595.276)"
         inkscape:connector-curvature="0"
         id="path6192"
         d="m 532.481,370.30401 0,-9.94421 3.05975,0 3.05976,0 0,9.94421 0,9.94421 -3.05976,0 -3.05975,0 0,-9.94421 z"
         style="fill:#464646;fill-opacity:1;stroke:#464646;stroke-width:0.30597562;stroke-opacity:1" /><path
         transform="matrix(0.8,0,0,-0.8,0,595.276)"
         inkscape:connector-curvature="0"
         id="path6194"
         d="m 532.481,351.15147 0,-7.67845 6.96094,0.1105 c 6.90142,0.10955 6.97723,0.11797 8.86484,0.98498 2.21807,1.01879 4.50334,3.27225 5.57506,5.49749 0.87693,1.82079 1.16031,5.02098 0.63756,7.20004 l -0.37517,1.56389 -3.50377,0 -3.50378,0 0.85701,-1.12359 c 0.73795,-0.96751 0.857,-1.40317 0.857,-3.13625 0,-3.82505 -1.88447,-5.20748 -7.11393,-5.21868 l -3.13625,-0.007 0,4.74262 0,4.74262 -3.05976,0 -3.05975,0 0,-7.67845 z"
         style="fill:#464646;fill-opacity:1;stroke:#464646;stroke-width:0.30597562;stroke-opacity:1" /><path
         transform="matrix(0.8,0,0,-0.8,0,595.276)"
         inkscape:connector-curvature="0"
         id="path6196"
         d="m 564.07996,358.126 c -0.1764,-0.38716 -0.48217,-1.48158 -0.67949,-2.43204 -0.91412,-4.40331 1.56982,-9.20692 5.7976,-11.21179 1.43321,-0.67965 2.0914,-0.79669 4.43665,-0.78895 2.23374,0.007 3.02166,0.14066 4.17232,0.70577 1.91431,0.94015 3.63789,2.46487 4.47439,3.95815 l 0.69134,1.23417 -2.00227,1.10059 c -1.10125,0.60532 -2.11312,1.10059 -2.2486,1.10059 -0.13549,0 -0.39671,-0.33004 -0.5805,-0.73341 -0.97235,-2.13409 -4.61549,-3.29203 -6.82795,-2.1702 -2.22461,1.12799 -3.12073,2.53286 -3.12073,4.89245 0,1.80144 0.60396,3.12657 1.93576,4.24721 l 0.9524,0.80138 -3.3401,0 c -3.18864,0 -3.35463,-0.0319 -3.66082,-0.70392 z"
         style="fill:#464646;fill-opacity:1;stroke:#464646;stroke-width:0.30597562;stroke-opacity:1" /><path
         transform="matrix(0.8,0,0,-0.8,0,595.276)"
         inkscape:connector-curvature="0"
         id="path6198"
         d="m 570.26899,379.83805 c -2.65177,-0.8773 -5.5063,-3.0139 -6.44069,-4.82081 -0.4252,-0.82225 -0.41768,-0.83173 1.6239,-2.04843 l 2.05109,-1.22236 0.72446,1.06614 c 0.92226,1.35723 3.37641,2.53298 5.29553,2.53703 3.24864,0.007 6.06213,-2.54555 6.07293,-5.50935 0.0115,-3.15602 -2.03331,-4.98442 -6.28463,-5.6195 -3.22433,-0.48166 -5.01001,-1.20985 -6.7143,-2.73805 l -1.2239,-1.09744 6.36118,-0.0127 c 7.21514,-0.0145 7.62213,0.086 9.91445,2.44779 1.95004,2.0091 2.66591,3.70174 2.79635,6.61183 0.10206,2.27683 0.0297,2.66579 -0.83099,4.46928 -1.82701,3.82817 -5.32132,6.08556 -9.67368,6.24939 -1.46151,0.055 -2.94095,-0.071 -3.6717,-0.31278 z"
         style="fill:#464646;fill-opacity:1;stroke:#464646;stroke-width:0.30597562;stroke-opacity:1" /><path
         transform="matrix(0.8,0,0,-0.8,0,595.276)"
         inkscape:connector-curvature="0"
         id="path6200"
         d="m 591.53429,370.457 0,-10.0972 2.90677,0 2.90677,0 0,10.0972 0,10.09719 -2.90677,0 -2.90677,0 0,-10.09719 z"
         style="fill:#464646;fill-opacity:1;stroke:#464646;stroke-width:0.30597562;stroke-opacity:1" /><path
         transform="matrix(0.8,0,0,-0.8,0,595.276)"
         inkscape:connector-curvature="0"
         id="path6202"
         d="m 591.53429,351.18053 0,-7.64939 2.90677,0 2.90677,0 0,7.64939 0,7.64939 -2.90677,0 -2.90677,0 0,-7.64939 z"
         style="fill:#464646;fill-opacity:1;stroke:#464646;stroke-width:0.30597562;stroke-opacity:1" /><path
         transform="matrix(0.8,0,0,-0.8,0,595.276)"
         inkscape:connector-curvature="0"
         id="path6204"
         d="m 604.86946,357.68252 c 1.09494,-6.10046 6.67732,-12.09983 12.76756,-13.72131 2.10711,-0.56099 6.07593,-0.54263 8.30681,0.0384 6.1404,1.59937 11.20039,7.03605 12.68078,13.62479 l 0.27085,1.20548 -2.86245,0 -2.86245,0 -0.31589,-1.1474 c -0.70451,-2.55902 -2.87787,-5.45398 -5.21526,-6.94683 -4.39855,-2.80928 -10.65825,-1.96166 -14.1015,1.90947 -1.10093,1.23775 -2.52117,3.79201 -3.14116,5.64931 -0.15272,0.4575 -0.58307,0.53545 -2.95599,0.53545 l -2.77725,0 0.20595,-1.1474 0,0 z"
         style="fill:#464646;fill-opacity:1;stroke:#464646;stroke-width:0.30597562;stroke-opacity:1" /><path
         transform="matrix(0.8,0,0,-0.8,0,595.276)"
         inkscape:connector-curvature="0"
         id="path6206"
         d="m 617.58008,379.7655 c -7.52244,-2.02324 -13.19481,-9.71952 -13.19481,-17.90274 l 0,-1.50296 2.91259,0 c 2.86703,0 2.90993,0.0108 2.74205,0.68845 -0.30428,1.22824 0.40083,4.80552 1.34482,6.82279 2.43096,5.19483 8.12377,7.94252 13.32377,6.43084 2.22867,-0.64789 3.64733,-1.53784 5.28049,-3.31251 2.24111,-2.43532 3.45506,-5.49321 3.46065,-8.71722 l 0.003,-1.91235 2.71811,0 c 3.18596,0 3.14739,-0.0511 2.75238,3.64576 -0.33451,3.13072 -1.3137,5.8264 -3.07045,8.45297 -2.51896,3.76615 -5.89714,6.22956 -10.0633,7.33827 -2.10586,0.56041 -6.06575,0.54532 -8.20961,-0.0313 l 0,0 z"
         style="fill:#464646;fill-opacity:1;stroke:#464646;stroke-width:0.30597562;stroke-opacity:1" /><path
         transform="matrix(0.8,0,0,-0.8,0,595.276)"
         inkscape:connector-curvature="0"
         id="path6208"
         d="m 590.92234,312.16864 0,-21.2653 11.3211,0 11.32109,0 0,3.05975 0,3.05976 -7.95536,0 -7.95537,0 0,5.96652 0,5.96653 7.80238,0 7.80238,0 0,3.05976 0,3.05975 -7.80238,0 -7.80238,0 0,9.17927 0,9.17927 -3.36573,0 -3.36573,0 0,-21.26531 z"
         style="fill:#464646;fill-opacity:1;stroke:#464646;stroke-width:0.30597562;stroke-opacity:1" /><path
         transform="matrix(0.8,0,0,-0.8,0,595.276)"
         inkscape:connector-curvature="0"
         id="path6210"
         d="m 537.68258,312.78059 0,-21.2653 3.36573,0 3.36574,0 0,18.20555 0,18.20555 7.64939,0 7.64939,0 0,3.05975 0,3.05976 -11.01513,0 -11.01512,0 0,-21.26531 z"
         style="fill:#464646;fill-opacity:1;stroke:#464646;stroke-width:0.30597562;stroke-opacity:1" /><path
         transform="matrix(0.8,0,0,-0.8,0,595.276)"
         inkscape:connector-curvature="0"
         id="path6212"
         d="m 481.99502,312.47462 0,-21.26531 10.70915,0 10.70914,0 0,3.51872 0,3.51872 -7.34341,0 -7.34342,0 0,5.50756 0,5.50756 6.73147,0 6.73146,0 0,3.05976 0,3.05976 -6.73146,0 -6.73147,0 0,5.81353 0,5.81354 7.80238,0 7.80238,0 0,3.36573 0,3.36573 -11.16811,0 -11.16811,0 0,-21.2653 z"
         style="fill:#464646;fill-opacity:1;stroke:#464646;stroke-width:0.30597562;stroke-opacity:1" /><path
         transform="matrix(0.8,0,0,-0.8,0,595.276)"
         inkscape:connector-curvature="0"
         id="path6214"
         d="m 423.55368,312.77709 0,-21.32528 8.49082,0.13569 c 7.7629,0.12406 8.67445,0.19495 10.63265,0.82687 3.8076,1.22873 6.20832,2.69236 9.05045,5.51772 4.28997,4.26467 6.22722,8.9499 6.2028,15.00149 -0.0156,3.87532 -0.59098,6.24514 -2.33994,9.63823 -1.71293,3.3232 -5.86699,7.52139 -8.90597,9.00059 -4.42903,2.1558 -4.95885,2.24334 -14.487,2.39363 l -8.64381,0.13634 0,-21.32528 z m 17.16505,13.81114 c 6.45948,-2.02277 10.33236,-7.24018 10.31698,-13.89864 -0.008,-3.40577 -0.99225,-6.34393 -2.97384,-8.87633 -1.73883,-2.22216 -5.66727,-4.5777 -8.48727,-5.08906 -0.4539,-0.0823 -2.72971,-0.24391 -5.05736,-0.35912 l -4.2321,-0.20948 0,14.62587 0,14.62587 4.51314,-0.1892 c 2.51693,-0.10552 5.13561,-0.38413 5.92045,-0.62991 z"
         style="fill:#464646;fill-opacity:1;stroke:#464646;stroke-width:0.30597562;stroke-opacity:1" /><path
         transform="matrix(0.8,0,0,-0.8,0,595.276)"
         inkscape:connector-curvature="0"
         id="path6216"
         d="m 652.78494,315.2284 0,-18.20555 -5.66055,0 -5.66055,0 0,-3.05976 0,-3.05975 14.83982,0 14.83982,0 0,3.05975 0,3.05976 -5.81354,0 -5.81354,0 0,18.20555 0,18.20555 -3.36573,0 -3.36573,0 0,-18.20555 z"
         style="fill:#464646;fill-opacity:1;stroke:#464646;stroke-width:0.30597562;stroke-opacity:1" /><path
         transform="matrix(0.8,0,0,-0.8,0,595.276)"
         inkscape:connector-curvature="0"
         id="path6218"
         d="m 604.86952,357.5732 c 0.38375,-2.39986 1.96938,-5.54817 4.12696,-8.19423 1.38756,-1.70169 4.79424,-4.10477 7.0306,-4.95939 2.14881,-0.82117 6.78825,-1.11906 9.30176,-0.59726 6.05955,1.25796 11.50874,6.73616 13.1781,13.24824 l 0.45101,1.75936 -2.88733,0 c -2.47776,0 -2.91268,-0.076 -3.06607,-0.53545 -2.24303,-6.71941 -7.8311,-10.30711 -13.77091,-8.84131 -3.7773,0.93214 -6.62923,3.51651 -8.22898,7.45695 l -0.7173,1.76683 -2.81132,0.0885 -2.81133,0.0885 0.20481,-1.28077 0,0 z"
         style="fill:#464646;fill-opacity:1;stroke:#464646;stroke-width:0.30597562;stroke-opacity:1" /><path
         transform="matrix(0.8,0,0,-0.8,0,595.276)"
         inkscape:connector-curvature="0"
         id="path6220"
         d="m 617.59775,379.81167 c -7.49087,-2.07732 -13.15696,-9.56224 -13.15696,-17.38038 l 0,-2.07149 2.75378,0 2.75378,0 0,0.93083 c 0,1.76084 0.97054,5.65002 1.78503,7.15301 2.51521,4.64141 7.77809,7.0894 12.60694,5.86403 4.97704,-1.26298 8.30556,-5.43856 8.98424,-11.27058 l 0.31156,-2.67729 2.73165,0 2.73165,0 -0.15251,2.83028 c -0.1901,3.52801 -1.15525,6.41781 -3.14109,9.40495 -2.34276,3.52401 -6.4284,6.43973 -10.26122,7.32292 -1.84004,0.42399 -6.24721,0.36505 -7.94685,-0.10628 z"
         style="fill:#464646;fill-opacity:1;stroke:#464646;stroke-width:0.30597562;stroke-opacity:1" /><path
         transform="matrix(0.8,0,0,-0.8,0,595.276)"
         inkscape:connector-curvature="0"
         id="path6222"
         d="m 644.82957,370.30401 0,-9.94421 2.90677,0 2.90677,0 0,9.94421 0,9.94421 -2.90677,0 -2.90677,0 0,-9.94421 z"
         style="fill:#464646;fill-opacity:1;stroke:#464646;stroke-width:0.30597562;stroke-opacity:1" /><path
         transform="matrix(0.8,0,0,-0.8,0,595.276)"
         inkscape:connector-curvature="0"
         id="path6224"
         d="m 644.82957,351.16945 0,-7.66047 2.92733,0.0876 2.92733,0.0876 4.39178,7.5729 4.39177,7.57289 -3.31682,0 -3.31681,0 -1.08733,-1.75936 -1.08732,-1.75936 -0.008,1.75936 -0.008,1.75936 -2.90677,0 -2.90677,0 0,-7.66047 z"
         style="fill:#464646;fill-opacity:1;stroke:#464646;stroke-width:0.30597562;stroke-opacity:1" /><path
         transform="matrix(0.8,0,0,-0.8,0,595.276)"
         inkscape:connector-curvature="0"
         id="path6226"
         d="m 659.81688,371.01847 c -2.94199,-5.07636 -5.52558,-9.55126 -5.74131,-9.94421 l -0.39225,-0.71446 3.35257,0 3.35257,0 2.18426,3.81869 c 1.20135,2.10028 2.31318,3.89836 2.47074,3.99574 0.1724,0.10655 0.28648,-1.41409 0.28648,-3.81869 l 0,-3.99574 2.90677,0 2.90677,0 0,9.94421 0,9.94421 -2.98876,0 -2.98876,0 -5.34908,-9.22975 z"
         style="fill:#464646;fill-opacity:1;stroke:#464646;stroke-width:0.30597562;stroke-opacity:1" /><path
         transform="matrix(0.8,0,0,-0.8,0,595.276)"
         inkscape:connector-curvature="0"
         id="path6228"
         d="m 665.32994,351.18053 0,-7.64939 2.90677,0 2.90677,0 0,7.64939 0,7.64939 -2.90677,0 -2.90677,0 0,-7.64939 z"
         style="fill:#464646;fill-opacity:1;stroke:#464646;stroke-width:0.30597562;stroke-opacity:1" /></g></g></svg>